#!OML:ASF I:\Actors\actors\Patient Classification 1\Patient 1\Session 1\Subject1.ASF
:FULLY-SPECIFIED
:DEGREES
314
root 0.635268 17.5913 7.35518 4.89133 2.38474 -8.89966
lowerback 3.96136 0.885183 8.10057
upperback -7.09792 2.04153 1.53292
thorax -9.60284 0.470542 -3.13637
lowerneck -14.6317 -6.48333 -1.95328
upperneck 27.1461 -10.9946 7.24116
head 11.864 -4.27061 1.39124
rclavicle -1.49089e-015 9.93923e-015
rhumerus 53.133 -23.9679 -121.943
rradius 14.9194
rwrist 114.641
rhand -36.2043 -58.8947
rfingers 7.12502
rthumb -9.30697 -88.6692
lclavicle -1.49089e-015 9.93923e-015
lhumerus 43.9379 2.01037 113.832
lradius 12.8804
lwrist -68.0217
lhand -54.452 -42.6103
lfingers 7.12502
lthumb -26.8559 -14.4977
rfemur -6.63367 20.6444 26.0294
rtibia 7.37729
rfoot -10.9362 -21.9653
rtoes 1.71153
lfemur -4.46494 -29.2704 -5.19381
ltibia 2.19343
lfoot -6.53247 33.7089
ltoes -6.47657
315
root 0.671686 17.5923 7.35119 4.98885 2.27637 -8.70398
lowerback 3.50827 0.854791 7.81782
upperback -6.71086 1.91377 1.66208
thorax -8.92241 0.469665 -2.81503
lowerneck -14.8839 -6.45713 -2.07893
upperneck 26.6963 -10.8719 7.24338
head 11.7395 -4.23655 1.42247
rclavicle 1.57785e-014 -3.22031e-014
rhumerus 54.3433 -24.3122 -124.338
rradius 15.1071
rwrist 116.815
rhand -36.4405 -58.5761
rfingers 7.12502
rthumb -9.53484 -88.3403
lclavicle 1.57785e-014 -3.22031e-014
lhumerus 44.5434 2.06332 114.084
lradius 12.9118
lwrist -67.8541
lhand -54.002 -42.1171
lfingers 7.12502
lthumb -26.4253 -13.939
rfemur -6.74364 20.6689 25.6038
rtibia 7.3361
rfoot -10.8879 -21.8989
rtoes 1.32484
lfemur -4.55951 -29.0329 -5.51822
ltibia 2.22719
lfoot -6.41081 33.5234
ltoes -6.54696
316
root 0.711386 17.5922 7.34853 5.0401 2.16606 -8.52299
lowerback 4.0573 0.929801 7.98739
upperback -7.0298 2.0907 1.45947
thorax -9.57662 0.501893 -3.15994
lowerneck -14.7685 -6.55665 -2.13236
upperneck 26.8879 -11.0533 7.33734
head 11.8119 -4.30831 1.44158
rclavicle -2.64384e-014 -3.77691e-014
rhumerus 52.1714 -22.2083 -119.758
rradius 15.4348
rwrist 111.487
rhand -36.1327 -58.1733
rfingers 7.12502
rthumb -9.23783 -87.951
lclavicle -2.64384e-014 -3.77691e-014
lhumerus 43.6825 -1.32258 110.362
lradius 13.3666
lwrist -62.2299
lhand -54.0855 -41.7471
lfingers 7.12502
lthumb -26.5052 -13.581
rfemur -6.76828 20.8178 25.2146
rtibia 7.26844
rfoot -10.8676 -21.9444
rtoes 0.961257
lfemur -4.62321 -28.6314 -5.8497
ltibia 2.25616
lfoot -6.10032 33.2008
ltoes -7.11277
317
root 0.755424 17.5924 7.34684 5.0347 2.0874 -8.35353
lowerback 4.15309 0.942958 7.93278
upperback -6.99546 2.11009 1.4463
thorax -9.5934 0.514701 -3.14829
lowerneck -14.9417 -6.57238 -2.13718
upperneck 26.9093 -11.0765 7.33135
head 11.8568 -4.31323 1.43075
rclavicle -2.5842e-015 -2.78299e-014
rhumerus 50.5118 -19.499 -115.578
rradius 16.0016
rwrist 105.656
rhand -36.038 -57.4327
rfingers 7.12502
rthumb -9.14645 -87.2144
lclavicle -2.5842e-015 -2.78299e-014
lhumerus 43.5004 -3.06283 108.793
lradius 13.8657
lwrist -58.9218
lhand -54.0272 -42.4549
lfingers 7.12502
lthumb -26.4493 -14.2804
rfemur -6.69294 21.0653 24.8519
rtibia 7.15355
rfoot -10.8585 -22.1126
rtoes 0.911979
lfemur -4.66386 -28.2176 -6.20196
ltibia 2.34598
lfoot -5.9572 32.8204
ltoes -7.53649
318
root 0.803523 17.5929 7.34505 5.06317 2.08584 -8.22916
lowerback 3.69918 0.882366 7.67243
upperback -6.62179 1.95014 1.63086
thorax -8.93357 0.497357 -2.77555
lowerneck -15.3901 -6.52027 -2.10196
upperneck 26.7301 -10.9696 7.26153
head 11.864 -4.26213 1.40087
rclavicle 1.18774e-014 -6.55989e-015
rhumerus 50.0369 -17.1566 -113.188
rradius 16.4835
rwrist 101.124
rhand -35.8899 -56.6916
rfingers 7.12502
rthumb -9.00355 -86.4795
lclavicle 1.18774e-014 -6.55989e-015
lhumerus 43.684 -8.29566 102.642
lradius 15.9458
lwrist -49.8365
lhand -53.8128 -42.6767
lfingers 7.12502
lthumb -26.2442 -14.4715
rfemur -6.65667 21.323 24.5139
rtibia 7.04264
rfoot -10.8423 -22.3687
rtoes 0.79531
lfemur -4.81576 -27.7762 -6.45042
ltibia 2.47716
lfoot -5.77896 32.2997
ltoes -8.37475
319
root 0.855725 17.5927 7.34415 5.12401 2.12334 -8.10901
lowerback 3.99726 0.880645 7.783
upperback -6.83991 1.99455 1.54009
thorax -9.34452 0.486747 -2.94673
lowerneck -15.3224 -6.55564 -1.96506
upperneck 26.7531 -11.068 7.27798
head 11.8584 -4.29177 1.37125
rclavicle -5.56597e-015 -8.15017e-015
rhumerus 49.5144 -16.6467 -112.385
rradius 16.8265
rwrist 98.8918
rhand -35.2989 -56.253
rfingers 7.12502
rthumb -8.43326 -86.0647
lclavicle -5.56597e-015 -8.15017e-015
lhumerus 43.147 -11.6289 99.0355
lradius 17.6207
lwrist -44.3034
lhand -53.7184 -43.2227
lfingers 7.12502
lthumb -26.1537 -15.0041
rfemur -6.67616 21.5164 24.1538
rtibia 6.9782
rfoot -10.8269 -22.6277
rtoes 0.392482
lfemur -5.01845 -27.3595 -6.67519
ltibia 2.59417
lfoot -5.67786 31.7722
ltoes -8.9486
